<svg width="32" height="32" viewBox="0 0 32 32" fill="none" xmlns="http://www.w3.org/2000/svg">
<path d="M12.0003 26.6666H20.0003V29.3333H12.0003V26.6666ZM22.5417 18.2826C23.915 16.6746 25.3337 15.012 25.3337 12C25.3337 6.85463 21.1457 2.66663 16.0003 2.66663C10.855 2.66663 6.66699 6.85463 6.66699 12C6.66699 15.0466 8.08966 16.704 9.46833 18.3066C9.94566 18.864 10.4403 19.4413 10.9137 20.1053C11.1057 20.38 11.4203 21.4333 11.7017 22.6666H10.6457V25.3333H21.355V22.6666H20.3017C20.5857 21.4306 20.9017 20.3746 21.0923 20.1C21.5617 19.4293 22.0603 18.8466 22.5417 18.2826Z" fill="white"/>
</svg>
