<svg width="32" height="32" viewBox="0 0 32 32" fill="none" xmlns="http://www.w3.org/2000/svg">
<path d="M5.33366 10.6666H2.66699V26.6666C2.66699 27.3739 2.94794 28.0521 3.44804 28.5522C3.94814 29.0523 4.62641 29.3333 5.33366 29.3333H21.3337V26.6666H5.33366V10.6666Z" fill="white"/>
<path d="M26.6667 2.66663H10.6667C9.95942 2.66663 9.28115 2.94758 8.78105 3.44767C8.28095 3.94777 8 4.62605 8 5.33329V21.3333C8 22.0405 8.28095 22.7188 8.78105 23.2189C9.28115 23.719 9.95942 24 10.6667 24H26.6667C27.3739 24 28.0522 23.719 28.5523 23.2189C29.0524 22.7188 29.3333 22.0405 29.3333 21.3333V5.33329C29.3333 4.62605 29.0524 3.94777 28.5523 3.44767C28.0522 2.94758 27.3739 2.66663 26.6667 2.66663ZM14.6667 18.6666V7.99996L24 13.3333L14.6667 18.6666Z" fill="white"/>
</svg>
