<svg width="1440" height="500" viewBox="0 0 1440 500" fill="none" xmlns="http://www.w3.org/2000/svg">
<g clip-path="url(#clip0_474_693)">
<path d="M1440 354.541L1380 344.754C1320 334.229 1200 315.763 1080 334.783C960 354.541 840 413.631 720 452.963C600 493.033 480 511.499 360 492.479C240 472.721 120 413.631 60 384.086L0 354.541V-3.05176e-05H60C120 -3.05176e-05 240 -3.05176e-05 360 -3.05176e-05C480 -3.05176e-05 600 -3.05176e-05 720 -3.05176e-05C840 -3.05176e-05 960 -3.05176e-05 1080 -3.05176e-05C1200 -3.05176e-05 1320 -3.05176e-05 1380 -3.05176e-05H1440V354.541Z" fill="#88139B"/>
</g>
<defs>
<clipPath id="clip0_474_693">
<rect width="1440" height="500" fill="white"/>
</clipPath>
</defs>
</svg>
